<svg width="300" height="244" viewBox="0 0 300 244" fill="none" xmlns="http://www.w3.org/2000/svg">
<path d="M137.466 210.737C137.939 211.249 138.361 211.8 138.728 212.39C139.1 212.981 139.408 213.602 139.659 214.251C139.909 214.899 140.096 215.567 140.217 216.251C140.342 216.939 140.401 217.631 140.393 218.326C140.385 219.022 140.311 219.71 140.174 220.394C140.034 221.074 139.834 221.738 139.569 222.383C139.303 223.027 138.982 223.641 138.6 224.223C138.22 224.806 137.787 225.349 137.302 225.849C133.734 229.78 129.959 233.504 125.981 237.021C124.063 238.377 121.999 239.452 119.791 240.249C118.646 240.351 117.517 240.28 116.392 240.046C115.27 239.811 114.207 239.421 113.199 238.87C112.191 238.323 111.284 237.643 110.479 236.826C109.674 236.009 109.006 235.095 108.471 234.083C107.939 233.196 107.552 232.254 107.318 231.246C107.083 230.241 107.009 229.225 107.091 228.194C107.177 227.166 107.419 226.173 107.814 225.22C108.209 224.266 108.744 223.399 109.412 222.609C113.449 217.936 117.802 213.578 122.472 209.538C123.004 209.084 123.574 208.69 124.184 208.346C124.793 208.006 125.43 207.728 126.095 207.514C126.759 207.299 127.439 207.15 128.134 207.068C128.826 206.99 129.522 206.974 130.217 207.033C130.917 207.088 131.601 207.209 132.273 207.4C132.945 207.592 133.59 207.846 134.211 208.162C134.836 208.483 135.419 208.858 135.966 209.288C136.517 209.721 137.017 210.206 137.466 210.737ZM65.0941 139.698C64.6174 138.678 64.0117 137.74 63.2731 136.888C62.5345 136.036 61.6943 135.302 60.7526 134.684C59.8069 134.067 58.7987 133.59 57.7201 133.254C56.6455 132.918 55.5396 132.734 54.4142 132.707C52.0109 133.524 49.7561 134.637 47.6498 136.048C43.4802 139.721 39.5411 143.633 35.8405 147.775C35.3442 148.287 34.9026 148.842 34.5157 149.444C34.1328 150.046 33.8123 150.675 33.5544 151.339C33.2965 152.007 33.105 152.691 32.9839 153.391C32.8627 154.094 32.8119 154.801 32.8354 155.513C32.8549 156.228 32.9448 156.931 33.1089 157.623C33.2691 158.318 33.4997 158.991 33.7928 159.639C34.0898 160.288 34.4493 160.902 34.8674 161.476C35.2855 162.054 35.7584 162.586 36.282 163.066C36.7744 163.567 37.3098 164.012 37.8842 164.407C38.4626 164.801 39.0722 165.138 39.7131 165.411C40.3539 165.689 41.0144 165.903 41.6982 166.052C42.3821 166.204 43.0738 166.286 43.7733 166.302C44.4688 166.318 45.1644 166.271 45.8522 166.154C46.5439 166.036 47.216 165.853 47.8686 165.606C48.5212 165.36 49.1465 165.055 49.7443 164.688C50.3383 164.321 50.8932 163.899 51.4052 163.426C55.6217 159.624 59.6349 155.61 63.4372 151.394C64.1836 150.636 64.7893 149.78 65.2622 148.823C65.7311 147.869 66.0437 146.869 66.1922 145.814C66.3407 144.762 66.3212 143.711 66.1336 142.664C65.946 141.617 65.6021 140.624 65.0941 139.69V139.698ZM87.3724 160.831C86.8488 160.351 86.2821 159.925 85.6764 159.549C85.0707 159.178 84.4337 158.862 83.7694 158.608C83.1051 158.358 82.4212 158.166 81.7217 158.041C81.0183 157.916 80.311 157.857 79.5998 157.865C78.8886 157.873 78.1813 157.947 77.4857 158.088C76.7862 158.229 76.1063 158.436 75.4498 158.701C74.7893 158.971 74.1602 159.299 73.5623 159.686C72.9644 160.073 72.4095 160.515 71.8976 161.007C67.9703 164.575 64.2461 168.342 60.7252 172.308C59.4317 174.102 58.4079 176.044 57.6615 178.127C57.5247 179.299 57.5677 180.464 57.7944 181.621C58.021 182.777 58.4157 183.871 58.9784 184.907C59.5451 185.943 60.2524 186.869 61.1043 187.685C61.9562 188.502 62.9136 189.17 63.9726 189.69C64.9339 190.214 65.9499 190.577 67.0246 190.78C68.1031 190.98 69.1817 191.011 70.268 190.874C71.3544 190.734 72.3939 190.433 73.3825 189.968C74.3712 189.499 75.2661 188.893 76.0633 188.147C80.1821 184.426 84.1524 180.538 87.8882 176.439C88.4001 175.919 88.8534 175.353 89.252 174.739C89.6467 174.125 89.9789 173.477 90.2446 172.797C90.5103 172.117 90.7057 171.417 90.8308 170.698C90.9519 169.975 91.0027 169.252 90.9793 168.522C90.9558 167.791 90.8581 167.072 90.6862 166.361C90.5143 165.649 90.2759 164.966 89.9672 164.305C89.6545 163.641 89.2833 163.02 88.8456 162.433C88.408 161.847 87.9195 161.312 87.3724 160.823V160.831ZM115.786 195.142C115.348 189.084 113.418 185.454 108.998 183.473C108.498 183.227 107.978 183.023 107.447 182.859C106.911 182.695 106.368 182.578 105.813 182.5C105.258 182.422 104.703 182.39 104.145 182.402C103.586 182.41 103.031 182.465 102.48 182.566C101.933 182.664 101.394 182.805 100.866 182.988C100.338 183.172 99.8265 183.395 99.3341 183.66C98.8417 183.922 98.3728 184.223 97.9312 184.563C97.4857 184.899 97.0715 185.27 96.6846 185.677C92.9644 189.096 89.4084 192.723 85.9187 196.369C85.3755 196.877 84.891 197.435 84.4611 198.041C84.0312 198.647 83.6678 199.292 83.3669 199.972C83.066 200.651 82.8394 201.355 82.6792 202.078C82.5189 202.805 82.4369 203.539 82.4251 204.282C82.4134 205.024 82.4759 205.759 82.6127 206.49C82.7495 207.22 82.9566 207.932 83.2341 208.619C83.5154 209.307 83.8593 209.96 84.2696 210.581C84.6799 211.199 85.1489 211.773 85.6764 212.297C86.204 212.82 86.7784 213.285 87.4037 213.696C88.025 214.106 88.6815 214.45 89.3693 214.727C90.061 215.005 90.7722 215.216 91.5029 215.353C92.2337 215.489 92.9723 215.556 93.7186 215.548C94.465 215.54 95.1997 215.458 95.9265 215.302C96.6573 215.149 97.3646 214.923 98.0485 214.63C98.7323 214.337 99.3771 213.977 99.9906 213.555C100.604 213.129 101.167 212.652 101.687 212.117C105.356 208.807 108.834 205.31 112.124 201.621C113.598 199.6 114.817 197.435 115.786 195.13V195.142ZM282.648 35.106C280.425 31.8938 277.959 28.877 275.247 26.0634C272.554 23.1717 269.663 20.4987 266.56 18.0486C262.515 14.9262 258.158 12.3197 253.496 10.2213C247.209 7.28262 240.686 5.01219 233.93 3.41391C227.173 1.81172 220.327 0.90902 213.387 0.713631C206.325 0.885573 199.385 1.88987 192.566 3.72263C185.747 5.55538 179.24 8.16577 173.047 11.5538C163.078 17.4546 154.235 24.7191 146.513 33.3475C134.836 45.0826 122.988 56.6536 111.335 68.4043C110.944 68.7677 110.573 69.1507 110.225 69.5571C109.873 69.9596 109.549 70.3816 109.244 70.8232C108.943 71.2609 108.666 71.7181 108.412 72.1909C108.162 72.6598 107.939 73.1444 107.74 73.6407C107.54 74.137 107.372 74.6411 107.232 75.1569C107.087 75.6727 106.978 76.1925 106.892 76.72C106.81 77.2476 106.755 77.779 106.732 78.3105C106.708 78.8459 106.712 79.3773 106.747 79.9127C106.782 80.4441 106.845 80.9756 106.939 81.4993C107.032 82.0268 107.158 82.5426 107.31 83.0546C107.462 83.5704 107.642 84.0706 107.849 84.563C108.056 85.0553 108.291 85.5321 108.553 86.001C108.814 86.466 109.1 86.9154 109.412 87.3492C109.721 87.783 110.057 88.2011 110.413 88.5958C110.772 88.9944 111.151 89.3695 111.55 89.7251C111.948 90.0807 112.367 90.4129 112.804 90.7216C113.48 91.2179 114.192 91.6517 114.942 92.0229C115.692 92.3941 116.47 92.6951 117.271 92.9295C118.076 93.164 118.896 93.3281 119.729 93.418C120.561 93.5079 121.394 93.5235 122.23 93.4688C123.066 93.4141 123.891 93.2851 124.703 93.0819C125.516 92.8826 126.306 92.613 127.068 92.273C127.834 91.933 128.564 91.5266 129.256 91.0616C129.952 90.5927 130.6 90.069 131.202 89.4868C136.646 84.3754 164.141 57.6461 172.038 49.7211C213.492 90.7138 243.832 120.976 251.132 128.451C256.212 133.649 260.89 138.506 260.89 138.506C264.161 141.933 267.482 145.442 270.964 149.065C273.32 146.099 275.939 143.137 278.486 140.057C281.058 136.959 283.449 133.731 285.661 130.37C289.417 124.391 292.426 118.06 294.692 111.378C296.959 104.696 298.412 97.8416 299.065 90.8154C299.299 86.9858 299.272 83.164 298.975 79.3422C298.682 75.5203 298.123 71.7337 297.302 67.99C296.482 64.2464 295.407 60.5731 294.078 56.9779C292.746 53.3827 291.175 49.8931 289.362 46.5168C287.373 42.566 285.137 38.7598 282.648 35.106ZM172.019 67.2984C160.561 78.4238 142.8 95.7978 138.369 99.6822C137.732 100.21 137.075 100.706 136.392 101.175C135.712 101.644 135.008 102.078 134.289 102.48C133.566 102.883 132.828 103.254 132.074 103.59C131.315 103.926 130.546 104.223 129.764 104.489C128.979 104.754 128.185 104.981 127.38 105.177C126.579 105.368 125.766 105.52 124.95 105.638C124.129 105.759 123.308 105.837 122.48 105.88C121.655 105.923 120.831 105.927 120.002 105.892C119.178 105.86 118.353 105.79 117.533 105.681C116.712 105.571 115.899 105.427 115.094 105.243C114.289 105.059 113.492 104.837 112.707 104.583C111.921 104.325 111.147 104.035 110.389 103.707C109.627 103.379 108.885 103.019 108.158 102.621C107.435 102.226 106.728 101.8 106.04 101.339C105.352 100.878 104.692 100.389 104.047 99.8697C103.406 99.3461 102.789 98.799 102.199 98.2207C101.608 97.6423 101.042 97.0405 100.506 96.4114C99.9711 95.7822 99.4631 95.1296 98.9902 94.4536C98.5135 93.7775 98.0719 93.0819 97.6616 92.3668C97.2474 91.6478 96.8722 90.9131 96.5322 90.1628C96.1884 89.4086 95.8836 88.6427 95.61 87.865C95.3404 87.0835 95.1059 86.2902 94.9105 85.4891C94.7112 84.688 94.5549 83.8791 94.4338 83.0624C94.3087 82.2417 94.2266 81.4211 94.1837 80.5965C94.1368 79.772 94.129 78.9475 94.1602 78.1229C94.1954 77.2984 94.2657 76.4738 94.3712 75.6571C94.4807 74.8365 94.6252 74.0276 94.8128 73.2187C94.9965 72.4137 95.2153 71.6204 95.4732 70.8349C95.7311 70.0494 96.0281 69.2796 96.3564 68.5215C96.6846 67.7634 97.052 67.0248 97.4506 66.3019C97.8492 65.5789 98.279 64.8755 98.744 64.1917C99.2091 63.5078 99.7054 62.8474 100.229 62.2104C103.723 58.0643 107.693 54.3128 111.55 50.4675C121.124 40.8661 130.764 31.292 140.608 21.4913C137.927 19.0802 135.098 16.8567 132.12 14.8207C129.143 12.7848 126.048 10.952 122.828 9.32639C119.608 7.69684 116.294 6.29004 112.886 5.09817C109.483 3.9102 106.013 2.94888 102.48 2.21813C98.9473 1.48346 95.3794 0.987177 91.7804 0.725355C88.1813 0.467442 84.5783 0.443994 80.9793 0.658922C77.3763 0.869943 73.8046 1.32325 70.2602 2.00711C66.7198 2.69488 63.2379 3.6093 59.8147 4.75819C25.3246 16.4581 5.32067 41.0459 1.25657 77.271C0.912686 80.1745 0.725113 83.0897 0.701666 86.0166C0.674311 88.9397 0.811084 91.8588 1.10417 94.7662C1.40116 97.6775 1.85837 100.561 2.47189 103.422C3.08541 106.282 3.85525 109.1 4.77748 111.874C5.70363 114.649 6.77827 117.365 8.00141 120.022C9.22454 122.679 10.5923 125.263 12.1007 127.767C13.6091 130.276 15.2503 132.691 17.0284 135.02C18.8025 137.345 20.6978 139.569 22.7181 141.687C28.3219 136.576 33.4645 131.761 38.7205 127.099C39.4004 126.454 40.1156 125.853 40.8659 125.29C41.6162 124.731 42.3977 124.215 43.2105 123.75C44.0234 123.281 44.8596 122.863 45.7232 122.496C46.583 122.128 47.4661 121.816 48.3649 121.554C49.2676 121.292 50.1781 121.085 51.1043 120.933C52.0265 120.78 52.9605 120.683 53.8944 120.644C54.8323 120.601 55.7662 120.616 56.7041 120.687C57.6381 120.757 58.5642 120.886 59.4825 121.066C60.4048 121.249 61.3075 121.484 62.2024 121.773C63.0933 122.062 63.9648 122.406 64.8128 122.801C65.6647 123.195 66.4853 123.637 67.2825 124.129C68.0797 124.622 68.8456 125.161 69.5803 125.743C70.311 126.329 71.0066 126.955 71.6631 127.623C72.3196 128.287 72.937 128.994 73.5076 129.733C74.082 130.476 74.6096 131.245 75.0902 132.05C75.567 132.855 76.0007 133.684 76.3798 134.54C77.6967 137.971 78.7049 141.492 79.4083 145.098C94.2853 146.404 102.394 154.715 103.723 169.686C118.982 171.066 127.22 179.303 128.443 194.231C128.873 194.376 129.315 194.477 129.764 194.544C130.671 194.567 131.573 194.645 132.468 194.77C133.367 194.899 134.254 195.079 135.129 195.306C136.005 195.532 136.864 195.81 137.712 196.138C138.557 196.462 139.381 196.837 140.182 197.256C140.983 197.678 141.761 198.143 142.511 198.651C143.258 199.159 143.977 199.706 144.664 200.296C145.348 200.886 146.001 201.515 146.614 202.179C147.232 202.84 147.806 203.539 148.342 204.266C148.877 204.997 149.369 205.755 149.819 206.541C150.268 207.326 150.671 208.135 151.03 208.963C151.386 209.796 151.695 210.644 151.952 211.511C152.214 212.379 152.425 213.254 152.585 214.145C152.742 215.036 152.851 215.931 152.91 216.834C152.968 217.736 152.972 218.639 152.929 219.542C152.882 220.448 152.785 221.343 152.636 222.238C152.492 223.129 152.292 224.008 152.042 224.88C151.929 225.396 151.933 225.915 152.05 226.431C152.163 226.947 152.382 227.416 152.707 227.838C157.111 232.344 161.499 236.884 166.22 241.05C166.693 241.425 167.197 241.757 167.724 242.047C168.256 242.336 168.807 242.578 169.381 242.773C169.952 242.969 170.538 243.113 171.136 243.211C171.73 243.309 172.332 243.352 172.937 243.348C173.543 243.34 174.141 243.282 174.739 243.176C175.333 243.067 175.915 242.91 176.482 242.703C177.052 242.496 177.595 242.242 178.123 241.941C178.646 241.64 179.143 241.3 179.608 240.917C179.94 240.659 180.26 240.39 180.561 240.097C180.862 239.807 181.147 239.503 181.413 239.178C181.679 238.858 181.929 238.522 182.16 238.17C182.386 237.822 182.597 237.459 182.785 237.088C182.972 236.713 183.14 236.33 183.285 235.939C183.43 235.548 183.555 235.146 183.656 234.743C183.754 234.337 183.832 233.926 183.887 233.512C183.942 233.094 183.973 232.68 183.981 232.262C183.988 231.843 183.969 231.425 183.93 231.011C183.891 230.593 183.828 230.179 183.742 229.772C183.656 229.362 183.547 228.959 183.414 228.561C183.285 228.166 183.133 227.775 182.957 227.396C182.781 227.017 182.586 226.646 182.367 226.29C182.152 225.931 181.913 225.587 181.659 225.255C181.401 224.927 181.128 224.61 180.839 224.309C180.546 224.008 180.241 223.723 179.917 223.457C168.814 212.367 157.658 201.331 146.564 190.233C146.071 189.733 145.63 189.198 145.235 188.616L125.934 169.346C125.661 169.065 125.415 168.76 125.2 168.428C124.989 168.1 124.809 167.752 124.66 167.385C124.516 167.021 124.406 166.646 124.336 166.259C124.262 165.872 124.227 165.481 124.231 165.091C124.235 164.696 124.274 164.309 124.356 163.922C124.434 163.535 124.551 163.164 124.703 162.801C124.856 162.437 125.04 162.093 125.258 161.769C125.477 161.441 125.727 161.14 126.005 160.862C126.286 160.581 126.587 160.335 126.915 160.116C127.24 159.897 127.587 159.71 127.951 159.557C128.314 159.405 128.685 159.291 129.072 159.213C129.459 159.131 129.85 159.092 130.241 159.088C130.635 159.084 131.026 159.12 131.413 159.19C131.8 159.264 132.175 159.374 132.542 159.518C132.91 159.663 133.258 159.843 133.586 160.057C133.918 160.272 134.227 160.515 134.508 160.788L153.914 180.163C154.438 180.53 154.934 180.933 155.399 181.37C158.893 184.684 162.406 187.982 165.833 191.363C173.84 199.26 181.722 207.283 189.815 215.091C190.354 215.65 190.948 216.142 191.593 216.576C192.238 217.006 192.922 217.369 193.641 217.658C194.364 217.947 195.106 218.158 195.872 218.291C196.638 218.424 197.408 218.479 198.185 218.448C198.963 218.42 199.725 218.315 200.479 218.123C201.233 217.936 201.96 217.67 202.66 217.33C203.355 216.99 204.012 216.58 204.622 216.103C205.235 215.626 205.79 215.087 206.29 214.493C206.751 213.93 207.154 213.328 207.498 212.687C207.842 212.047 208.123 211.378 208.338 210.683C208.557 209.991 208.705 209.28 208.783 208.561C208.865 207.838 208.877 207.111 208.818 206.388C208.76 205.661 208.635 204.95 208.439 204.251C208.244 203.547 207.986 202.871 207.662 202.222C207.337 201.57 206.954 200.956 206.513 200.378C206.071 199.8 205.575 199.268 205.032 198.784C193.711 187.408 182.277 176.107 170.897 164.758C165.469 159.35 159.979 154.012 154.696 148.459C154.399 148.186 154.129 147.885 153.895 147.556C153.656 147.228 153.457 146.876 153.293 146.509C153.129 146.138 153.004 145.755 152.918 145.36C152.832 144.966 152.789 144.563 152.785 144.161C152.781 143.754 152.82 143.356 152.898 142.957C152.98 142.562 153.097 142.175 153.258 141.804C153.414 141.433 153.609 141.077 153.844 140.745C154.074 140.413 154.336 140.108 154.629 139.831C154.915 139.545 155.227 139.291 155.563 139.065C155.895 138.838 156.251 138.647 156.622 138.49C156.993 138.33 157.376 138.209 157.775 138.127C158.17 138.045 158.568 137.998 158.971 137.99C159.377 137.986 159.78 138.018 160.174 138.088C160.573 138.158 160.96 138.268 161.339 138.412C161.714 138.557 162.074 138.737 162.417 138.951C162.757 139.166 163.078 139.413 163.371 139.69C164.129 140.319 164.848 140.991 165.524 141.706C181.652 157.736 197.736 173.805 213.953 189.741C215.724 191.484 217.802 192.695 220.194 193.371C220.768 193.516 221.347 193.614 221.937 193.664C222.523 193.715 223.113 193.715 223.699 193.668C224.289 193.621 224.872 193.528 225.442 193.383C226.017 193.242 226.572 193.051 227.115 192.816C227.658 192.582 228.174 192.304 228.67 191.984C229.166 191.664 229.631 191.308 230.069 190.909C230.507 190.511 230.905 190.081 231.273 189.62C231.636 189.155 231.964 188.666 232.246 188.15C232.547 187.623 232.801 187.08 233.008 186.513C233.219 185.946 233.379 185.368 233.496 184.774C233.609 184.184 233.676 183.586 233.692 182.984C233.707 182.379 233.676 181.781 233.594 181.183C233.512 180.585 233.383 179.995 233.203 179.42C233.027 178.842 232.801 178.283 232.531 177.744C232.261 177.205 231.953 176.689 231.597 176.2C231.245 175.712 230.851 175.255 230.425 174.829C218.068 162.379 205.606 150.022 193.183 137.635C188.736 133.195 184.18 128.819 179.803 124.286C179.483 124.012 179.194 123.711 178.936 123.379C178.674 123.047 178.451 122.691 178.264 122.316C178.076 121.941 177.927 121.546 177.818 121.14C177.709 120.737 177.642 120.323 177.615 119.901C177.591 119.483 177.607 119.065 177.666 118.647C177.72 118.232 177.822 117.822 177.963 117.427C178.099 117.029 178.279 116.65 178.494 116.29C178.713 115.931 178.963 115.595 179.244 115.282C179.553 114.973 179.889 114.7 180.253 114.461C180.612 114.223 180.995 114.02 181.398 113.856C181.8 113.692 182.218 113.567 182.644 113.484C183.07 113.406 183.504 113.367 183.938 113.371C184.371 113.375 184.805 113.422 185.227 113.512C185.653 113.602 186.067 113.731 186.466 113.903C186.868 114.075 187.244 114.286 187.603 114.532C187.963 114.778 188.291 115.059 188.592 115.372C189.151 115.853 189.635 116.423 190.163 116.947C206.185 132.894 222.218 148.842 238.264 164.778C239.033 165.669 239.917 166.435 240.909 167.072C241.902 167.705 242.965 168.19 244.098 168.518C245.231 168.85 246.388 169.014 247.564 169.01C248.744 169.006 249.901 168.834 251.03 168.498L251.347 168.389C251.796 168.205 252.234 167.994 252.66 167.756C253.086 167.517 253.492 167.252 253.879 166.962C254.27 166.669 254.641 166.353 254.989 166.017C255.337 165.677 255.665 165.317 255.966 164.934C256.267 164.555 256.544 164.157 256.794 163.739C257.044 163.32 257.267 162.891 257.463 162.445C257.658 162 257.822 161.542 257.959 161.077C258.092 160.608 258.197 160.136 258.271 159.655C258.346 159.174 258.389 158.69 258.4 158.205C258.412 157.721 258.393 157.236 258.338 156.751C258.287 156.267 258.205 155.79 258.092 155.317C257.978 154.844 257.838 154.379 257.662 153.926C257.49 153.473 257.287 153.031 257.056 152.605C256.826 152.175 256.568 151.765 256.286 151.37C256.001 150.976 255.692 150.601 255.36 150.245C255.028 149.889 254.672 149.557 254.297 149.248C236.153 131.12 195.192 90.2957 172.019 67.2984Z" fill="white"/>
</svg>
