<svg width="399" height="415" viewBox="0 0 399 415" fill="none" xmlns="http://www.w3.org/2000/svg">
<ellipse cx="199.5" cy="198.754" rx="199.5" ry="190.5" fill="#33AAEE"/>
<mask id="mask0_2201_672" style="mask-type:luminance" maskUnits="userSpaceOnUse" x="79" y="0" width="241" height="415">
<path d="M79.5073 0.253906H319.425V414.071H79.5073V0.253906Z" fill="white"/>
</mask>
<g mask="url(#mask0_2201_672)">
<path d="M311.067 396.998C311.067 402.183 306.849 406.401 301.665 406.401H96.6942C91.5097 406.401 87.2918 402.183 87.2918 396.998V17.327C87.2918 12.1425 91.5097 7.92466 96.6942 7.92466H134.479C135.239 17.9163 143.572 25.7886 153.754 25.7886H244.604C254.792 25.7886 263.125 17.9163 263.885 7.92466H301.665C306.849 7.92466 311.067 12.1425 311.067 17.327V396.998ZM301.665 0.253906H96.6942C87.2763 0.253906 79.6211 7.91432 79.6211 17.327V396.998C79.6211 406.411 87.2763 414.071 96.6942 414.071H301.665C311.077 414.071 318.743 406.411 318.743 396.998V17.327C318.743 7.91432 311.077 0.253906 301.665 0.253906Z" fill="#231815"/>
</g>
<path d="M87 17.8911V397.109C87 402.287 91.241 406.5 96.4538 406.5H302.546C307.759 406.5 312 402.287 312 397.109V17.8911C312 12.7128 307.759 8.5 302.546 8.5H264.559C263.795 18.4797 255.417 26.3426 245.174 26.3426H153.826C143.588 26.3426 135.21 18.4797 134.446 8.5H96.4538C91.241 8.5 87 12.7128 87 17.8911Z" fill="white"/>
<path d="M254.271 389.5H112.734C107.358 389.5 103 384.963 103 379.365V378.635C103 373.042 107.358 368.5 112.734 368.5H254.271C259.647 368.5 264 373.042 264 378.635V379.365C264 384.963 259.647 389.5 254.271 389.5Z" fill="#D9D9D9"/>
<path d="M296 378.997C296 384.803 291.518 389.5 286 389.5C280.477 389.5 276 384.803 276 378.997C276 373.202 280.477 368.5 286 368.5C291.518 368.5 296 373.202 296 378.997Z" fill="#33AAEE"/>
<mask id="mask1_2201_672" style="mask-type:luminance" maskUnits="userSpaceOnUse" x="34" y="222" width="237" height="112">
<path d="M34 222.375H270.635V333.529H34V222.375Z" fill="white"/>
</mask>
<g mask="url(#mask1_2201_672)">
<path d="M270.005 305.141C270.005 300.675 270.005 296.204 270.005 291.738C270.005 277.719 270.005 263.696 270.005 249.678C270.005 244.974 270.005 240.27 270.005 235.572C270.005 234.858 270.015 234.145 270.005 233.427C269.927 228.402 266.361 223.859 261.336 222.949C259.827 222.675 258.266 222.758 256.736 222.758C254.084 222.758 251.433 222.758 248.781 222.758C239.239 222.758 229.692 222.758 220.15 222.758C206.861 222.758 193.576 222.758 180.287 222.758C165.545 222.758 150.793 222.758 136.051 222.758C122.136 222.758 108.226 222.758 94.3062 222.758C83.5082 222.758 72.7102 222.758 61.9174 222.758C56.521 222.758 51.1298 222.758 45.7386 222.758C45.2837 222.758 44.8236 222.742 44.3688 222.778C39.2877 223.135 35.075 227.053 34.4444 232.124C34.098 234.895 34.3513 237.82 34.3513 240.601C34.3513 253.978 34.3513 267.361 34.3513 280.733C34.3513 286.874 34.3513 293.02 34.3513 299.155C34.3513 301.802 34.2583 304.469 34.3565 307.115C34.5529 312.326 38.5382 316.719 43.7227 317.371C44.3688 317.448 44.9994 317.459 45.6455 317.459C47.4702 317.459 49.2845 317.459 51.1039 317.459C59.4001 317.459 67.6963 317.459 75.9874 317.459C88.579 317.459 101.171 317.459 113.762 317.459C128.365 317.459 142.967 317.459 157.569 317.459C171.892 317.459 186.221 317.459 200.544 317.459C203.661 317.459 206.773 317.459 209.89 317.459L240.376 332.841L234.148 317.459C234.711 317.459 235.269 317.459 235.833 317.459C242.738 317.459 249.649 317.459 256.56 317.459C257.485 317.459 258.406 317.459 259.326 317.459C264.495 317.371 269.059 313.649 269.86 308.475C270.036 307.364 270.005 306.257 270.005 305.141Z" fill="#878181"/>
</g>
<path d="M152.824 241.439C155.92 241.439 159.026 241.439 162.127 241.439C169.53 241.439 176.938 241.439 184.346 241.439C193.348 241.439 202.35 241.439 211.347 241.439C219.128 241.439 226.914 241.439 234.695 241.439C237.25 241.439 239.804 241.439 242.358 241.439C243.564 241.439 244.806 241.576 246.011 241.439C246.062 241.43 246.124 241.439 246.18 241.439C247.273 241.439 247.273 238.565 246.18 238.565C243.074 238.565 239.973 238.565 236.877 238.565C229.469 238.565 222.061 238.565 214.653 238.565C205.656 238.565 196.649 238.565 187.652 238.565C179.866 238.565 172.09 238.565 164.309 238.565C161.754 238.565 159.195 238.565 156.64 238.565C155.435 238.565 154.193 238.419 152.987 238.565C152.936 238.574 152.88 238.565 152.824 238.565C151.725 238.565 151.725 241.439 152.824 241.439Z" fill="white"/>
<path d="M152.824 257.454C155.92 257.454 159.026 257.454 162.127 257.454C169.53 257.454 176.938 257.454 184.346 257.454C193.348 257.454 202.35 257.454 211.347 257.454C219.128 257.454 226.914 257.454 234.695 257.454C237.25 257.454 239.804 257.454 242.358 257.454C243.564 257.454 244.806 257.557 246.011 257.454C246.062 257.454 246.124 257.454 246.18 257.454C247.273 257.454 247.273 255.543 246.18 255.543C243.074 255.543 239.973 255.543 236.877 255.543C229.469 255.543 222.061 255.543 214.653 255.543C205.656 255.543 196.649 255.543 187.652 255.543C179.866 255.543 172.09 255.543 164.309 255.543C161.754 255.543 159.195 255.543 156.64 255.543C155.435 255.543 154.193 255.446 152.987 255.543C152.936 255.549 152.88 255.543 152.824 255.543C151.725 255.543 151.725 257.454 152.824 257.454Z" fill="white"/>
<path d="M152.824 275.477C155.92 275.477 159.026 275.477 162.127 275.477C169.53 275.477 176.938 275.477 184.346 275.477C193.348 275.477 202.35 275.477 211.347 275.477C219.128 275.477 226.914 275.477 234.695 275.477C237.25 275.477 239.804 275.477 242.358 275.477C243.564 275.477 244.806 275.529 246.011 275.477C246.062 275.477 246.124 275.477 246.18 275.477C247.273 275.477 247.273 274.522 246.18 274.522C243.074 274.522 239.973 274.522 236.877 274.522C229.469 274.522 222.061 274.522 214.653 274.522C205.656 274.522 196.649 274.522 187.652 274.522C179.866 274.522 172.09 274.522 164.309 274.522C161.754 274.522 159.195 274.522 156.64 274.522C155.435 274.522 154.193 274.473 152.987 274.522C152.936 274.525 152.88 274.522 152.824 274.522C151.725 274.522 151.725 275.477 152.824 275.477Z" fill="white"/>
<path d="M152.824 291.454C155.92 291.454 159.026 291.454 162.127 291.454C169.53 291.454 176.938 291.454 184.346 291.454C193.348 291.454 202.35 291.454 211.347 291.454C219.128 291.454 226.914 291.454 234.695 291.454C237.25 291.454 239.804 291.454 242.358 291.454C243.564 291.454 244.806 291.557 246.011 291.454C246.062 291.454 246.124 291.454 246.18 291.454C247.273 291.454 247.273 289.543 246.18 289.543C243.074 289.543 239.973 289.543 236.877 289.543C229.469 289.543 222.061 289.543 214.653 289.543C205.656 289.543 196.649 289.543 187.652 289.543C179.866 289.543 172.09 289.543 164.309 289.543C161.754 289.543 159.195 289.543 156.64 289.543C155.435 289.543 154.193 289.446 152.987 289.543C152.936 289.549 152.88 289.543 152.824 289.543C151.725 289.543 151.725 291.454 152.824 291.454Z" fill="white"/>
<mask id="mask2_2201_672" style="mask-type:luminance" maskUnits="userSpaceOnUse" x="123" y="68" width="238" height="111">
<path d="M123.754 68.877H360.493V178.04H123.754V68.877Z" fill="white"/>
</mask>
<g mask="url(#mask2_2201_672)">
<path d="M360.493 151.86C360.493 147.394 360.493 142.923 360.493 138.457C360.493 124.439 360.493 110.415 360.493 96.4023C360.493 91.6934 360.493 86.9948 360.493 82.2911C360.493 81.5777 360.503 80.8644 360.493 80.1459C360.415 75.1269 356.849 70.5833 351.824 69.6684C350.32 69.3996 348.754 69.4772 347.229 69.4772C344.578 69.4772 341.926 69.4772 339.269 69.4772C329.727 69.4772 320.185 69.4772 310.638 69.4772C297.354 69.4772 284.064 69.4772 270.78 69.4772C256.033 69.4772 241.286 69.4772 226.544 69.4772C212.629 69.4772 198.709 69.4772 184.794 69.4772C173.996 69.4772 163.198 69.4772 152.406 69.4772C147.014 69.4772 141.623 69.4772 136.227 69.4772C135.772 69.4772 135.317 69.4668 134.857 69.4979C129.781 69.8597 125.568 73.7726 124.932 78.8433C124.586 81.6139 124.845 84.5396 124.845 87.3256C124.845 100.703 124.845 114.08 124.845 127.452C124.845 133.598 124.845 139.739 124.845 145.875C124.845 148.521 124.746 151.188 124.845 153.835C125.046 159.045 129.031 163.444 134.211 164.09C134.857 164.173 135.488 164.178 136.139 164.178C137.958 164.178 139.778 164.178 141.597 164.178C146.663 164.178 151.734 164.178 156.794 164.178L151.258 177.87L178.39 164.178C187.007 164.178 195.634 164.178 204.25 164.178C218.853 164.178 233.455 164.178 248.057 164.178C262.386 164.178 276.709 164.178 291.037 164.178C302.797 164.178 314.556 164.178 326.321 164.178C333.232 164.178 340.143 164.178 347.048 164.178C347.974 164.178 348.894 164.178 349.819 164.178C354.983 164.09 359.552 160.368 360.353 155.194C360.524 154.088 360.493 152.982 360.493 151.86Z" fill="#D9D9D9"/>
</g>
<path d="M144.83 89.4772C148.163 89.4772 151.495 89.4772 154.828 89.4772C162.823 89.4772 170.829 89.4772 178.829 89.4772C188.468 89.4772 198.096 89.4772 207.734 89.4772C216.099 89.4772 224.459 89.4772 232.829 89.4772C235.571 89.4772 238.319 89.4772 241.066 89.4772C242.365 89.4772 243.705 89.5285 245.004 89.4772C245.056 89.4743 245.112 89.4772 245.174 89.4772C246.273 89.4772 246.278 88.5216 245.174 88.5216C241.841 88.5216 238.509 88.5216 235.176 88.5216C227.17 88.5216 219.17 88.5216 211.175 88.5216C201.536 88.5216 191.898 88.5216 182.264 88.5216C173.899 88.5216 165.534 88.5216 157.175 88.5216C154.427 88.5216 151.68 88.5216 148.933 88.5216C147.634 88.5216 146.293 88.4731 144.999 88.5216C144.938 88.5244 144.881 88.5216 144.83 88.5216C143.726 88.5216 143.721 89.4772 144.83 89.4772Z" fill="white"/>
<path d="M144.836 108.457C147.93 108.457 151.024 108.457 154.113 108.457C161.542 108.457 168.972 108.457 176.407 108.457C185.393 108.457 194.38 108.457 203.367 108.457C211.138 108.457 218.909 108.457 226.68 108.457C229.241 108.457 231.802 108.457 234.363 108.457C235.569 108.457 236.805 108.554 238.005 108.457C238.062 108.451 238.114 108.457 238.166 108.457C239.278 108.457 239.278 106.543 238.166 106.543C235.072 106.543 231.978 106.543 228.884 106.543C221.454 106.543 214.025 106.543 206.595 106.543C197.609 106.543 188.622 106.543 179.63 106.543C171.864 106.543 164.093 106.543 156.317 106.543C153.761 106.543 151.195 106.543 148.639 106.543C147.439 106.543 146.192 106.446 144.991 106.543C144.94 106.549 144.883 106.543 144.836 106.543C143.724 106.543 143.719 108.457 144.836 108.457Z" fill="white"/>
<path d="M144.829 126.442C147.631 126.442 150.438 126.442 153.235 126.442C159.927 126.442 166.619 126.442 173.311 126.442C181.445 126.442 189.579 126.442 197.718 126.442C204.718 126.442 211.728 126.442 218.727 126.442C221.057 126.442 223.377 126.442 225.701 126.442C226.795 126.442 227.934 126.572 229.027 126.442C229.073 126.434 229.124 126.442 229.171 126.442C230.274 126.442 230.279 123.561 229.171 123.561C226.369 123.561 223.567 123.561 220.76 123.561C214.073 123.561 207.381 123.561 200.689 123.561C192.555 123.561 184.416 123.561 176.282 123.561C169.282 123.561 162.272 123.561 155.273 123.561C152.948 123.561 150.623 123.561 148.299 123.561C147.2 123.561 146.071 123.423 144.978 123.561C144.927 123.561 144.876 123.561 144.829 123.561C143.726 123.561 143.721 126.442 144.829 126.442Z" fill="white"/>
<path d="M144.83 144.5C153.45 144.5 162.076 144.5 170.697 144.5C184.39 144.5 198.078 144.5 211.766 144.5C214.898 144.5 218.035 144.5 221.172 144.5C222.276 144.5 222.276 142.5 221.172 142.5C212.546 142.5 203.926 142.5 195.3 142.5C181.612 142.5 167.924 142.5 154.236 142.5C151.099 142.5 147.967 142.5 144.83 142.5C143.726 142.5 143.721 144.5 144.83 144.5Z" fill="white"/>
</svg>
