<svg width="192" height="119" viewBox="0 0 192 119" fill="none" xmlns="http://www.w3.org/2000/svg">
<rect x="21.2792" y="0.5" width="152.766" height="117.857" fill="white" stroke="#ECEFF5"/>
<rect x="0.5" y="68.6558" width="191" height="49.7013" fill="white" stroke="#ECEFF5"/>
<path d="M157.922 78.1299C153.912 78.1299 150.649 81.3924 150.649 85.4026V89.7662H149.195C148.423 89.7662 147.683 90.0727 147.138 90.6183C146.592 91.1639 146.286 91.9038 146.286 92.6753V104.312C146.286 105.083 146.592 105.823 147.138 106.369C147.683 106.914 148.423 107.221 149.195 107.221H166.649C167.421 107.221 168.161 106.914 168.706 106.369C169.252 105.823 169.558 105.083 169.558 104.312V92.6753C169.558 91.9038 169.252 91.1639 168.706 90.6183C168.161 90.0727 167.421 89.7662 166.649 89.7662H165.195V85.4026C165.195 81.3924 161.932 78.1299 157.922 78.1299ZM153.558 85.4026C153.558 82.9968 155.516 81.039 157.922 81.039C160.328 81.039 162.286 82.9968 162.286 85.4026V89.7662H153.558V85.4026ZM159.377 101V104.312H156.468V101C155.959 100.708 155.551 100.27 155.296 99.742C155.042 99.2141 154.954 98.6214 155.043 98.0423C155.132 97.4631 155.395 96.9246 155.797 96.4978C156.198 96.071 156.72 95.7758 157.292 95.6513C157.718 95.5573 158.159 95.5599 158.583 95.659C159.007 95.7581 159.404 95.9512 159.743 96.224C160.083 96.4967 160.357 96.8422 160.545 97.235C160.734 97.6279 160.831 98.0579 160.831 98.4935C160.83 99.0022 160.695 99.5017 160.44 99.9417C160.185 100.382 159.818 100.747 159.377 101Z" fill="url(#paint0_linear_3_3753)"/>
<rect x="19.1169" y="84.7792" width="94.7533" height="14.961" rx="7.48052" fill="url(#paint1_linear_3_3753)"/>
<rect x="34.0779" y="21.6104" width="48.2078" height="9.14286" rx="4.57143" fill="#BECAD3"/>
<rect x="34.0779" y="49.8701" width="68.1558" height="9.14286" rx="4.57143" fill="#E5ECF1"/>
<path d="M143.377 19.1169L137.974 21.5348V25.1617C137.974 28.5197 140.276 31.6509 143.377 32.4156C146.477 31.6509 148.779 28.5197 148.779 25.1617V21.5348L143.377 19.1169ZM143.377 25.7602H147.579C147.26 28.2507 145.613 30.4691 143.377 31.1613V25.7662H139.175V22.3207L143.377 20.4407V25.7602Z" fill="#BECAD3"/>
<path d="M149.16 48.5291L142.561 54.5877L140.949 53.1077C140.834 52.9984 140.696 52.9112 140.544 52.8512C140.392 52.7912 140.228 52.7596 140.063 52.7583C139.897 52.757 139.733 52.7859 139.58 52.8435C139.427 52.901 139.287 52.986 139.17 53.0935C139.053 53.201 138.961 53.3288 138.898 53.4695C138.835 53.6101 138.804 53.7609 138.805 53.9128C138.807 54.0648 138.841 54.215 138.906 54.3547C138.972 54.4943 139.067 54.6206 139.186 54.7262L141.679 57.0155C141.913 57.2301 142.23 57.3507 142.561 57.3507C142.891 57.3507 143.208 57.2301 143.442 57.0155L150.923 50.1476C151.15 49.9318 151.276 49.6426 151.273 49.3425C151.27 49.0424 151.139 48.7553 150.908 48.5431C150.676 48.3308 150.364 48.2104 150.037 48.2078C149.71 48.2052 149.395 48.3206 149.16 48.5291Z" fill="#E5ECF1"/>
<defs>
<linearGradient id="paint0_linear_3_3753" x1="3.67699e+08" y1="-9.76129e+08" x2="3.67699e+08" y2="-9.76129e+08" gradientUnits="userSpaceOnUse">
<stop stop-color="#33AAEE"/>
<stop offset="1" stop-color="#7AAEF6"/>
</linearGradient>
<linearGradient id="paint1_linear_3_3753" x1="19.1169" y1="89.8553" x2="113.871" y2="92.2418" gradientUnits="userSpaceOnUse">
<stop stop-color="#3880F3"/>
<stop offset="1" stop-color="#52B5F4"/>
</linearGradient>
</defs>
</svg>
