<svg width="154" height="95" viewBox="0 0 154 95" fill="none" xmlns="http://www.w3.org/2000/svg">
<g id="Group 512222">
<rect id="Rectangle 289" x="35.1909" y="84.5195" width="37.8984" height="5.41406" rx="2.70703" fill="#E5ECF1"/>
<path id="Vector" d="M99.5893 84.7098L95.9276 88.2975L95.0331 87.4211C94.9693 87.3563 94.893 87.3047 94.8086 87.2692C94.7242 87.2336 94.6334 87.2149 94.5416 87.2142C94.4497 87.2134 94.3586 87.2305 94.2736 87.2646C94.1886 87.2987 94.1113 87.349 94.0464 87.4127C93.9814 87.4763 93.93 87.552 93.8953 87.6353C93.8605 87.7186 93.843 87.8078 93.8438 87.8978C93.8446 87.9878 93.8637 88.0768 93.8999 88.1595C93.9362 88.2422 93.9889 88.317 94.0549 88.3795L95.4385 89.7351C95.5683 89.8622 95.7442 89.9336 95.9276 89.9336C96.1111 89.9336 96.287 89.8622 96.4167 89.7351L100.568 85.6682C100.694 85.5404 100.763 85.3692 100.762 85.1915C100.76 85.0137 100.687 84.8437 100.559 84.7181C100.431 84.5924 100.257 84.5211 100.076 84.5196C99.8945 84.518 99.7198 84.5863 99.5893 84.7098Z" fill="#BECAD3"/>
<path id="Vector_2" d="M139.713 2.25586H14.2871C7.64243 2.25586 2.25586 7.64243 2.25586 14.2871V80.459C2.25586 87.1037 7.64243 92.4902 14.2871 92.4902H139.713C146.358 92.4902 151.744 87.1037 151.744 80.459V14.2871C151.744 7.64243 146.358 2.25586 139.713 2.25586Z" fill="white"/>
<path id="Vector_3" d="M139.713 94.7461H14.2871C10.4994 94.7413 6.86819 93.2345 4.18987 90.5562C1.51155 87.8779 0.00477543 84.2467 0 80.459L0 14.2871C0.00477543 10.4994 1.51155 6.86819 4.18987 4.18987C6.86819 1.51155 10.4994 0.00477543 14.2871 0H139.713C143.501 0.00477543 147.132 1.51155 149.81 4.18987C152.488 6.86819 153.995 10.4994 154 14.2871V80.459C153.995 84.2467 152.488 87.8779 149.81 90.5562C147.132 93.2345 143.501 94.7413 139.713 94.7461ZM14.2871 4.51172C11.6955 4.5149 9.21093 5.54583 7.37838 7.37838C5.54583 9.21093 4.5149 11.6955 4.51172 14.2871V80.459C4.5149 83.0506 5.54583 85.5352 7.37838 87.3677C9.21093 89.2003 11.6955 90.2312 14.2871 90.2344H139.713C142.305 90.2312 144.789 89.2003 146.622 87.3677C148.454 85.5352 149.485 83.0506 149.488 80.459V14.2871C149.485 11.6955 148.454 9.21093 146.622 7.37838C144.789 5.54583 142.305 4.5149 139.713 4.51172H14.2871Z" fill="url(#paint0_linear_3_3762)"/>
<path id="Vector_4" d="M2.25586 74.4434H151.744V80.459C151.744 83.6499 150.477 86.7101 148.22 88.9664C145.964 91.2227 142.904 92.4902 139.713 92.4902H14.2871C11.0962 92.4902 8.03603 91.2227 5.77973 88.9664C3.52343 86.7101 2.25586 83.6499 2.25586 80.459V74.4434Z" fill="#33AAEE"/>
<path id="Vector_5" d="M139.713 94.7461H14.2871C10.4994 94.7413 6.86819 93.2345 4.18987 90.5562C1.51155 87.8779 0.00477543 84.2467 0 80.459L0 74.4434C0 73.8451 0.23767 73.2713 0.660726 72.8482C1.08378 72.4252 1.65757 72.1875 2.25586 72.1875H151.744C152.342 72.1875 152.916 72.4252 153.339 72.8482C153.762 73.2713 154 73.8451 154 74.4434V80.459C153.995 84.2467 152.488 87.8779 149.81 90.5562C147.132 93.2345 143.501 94.7413 139.713 94.7461ZM4.51172 76.6992V80.459C4.5149 83.0506 5.54583 85.5352 7.37838 87.3677C9.21093 89.2003 11.6955 90.2312 14.2871 90.2344H139.713C142.305 90.2312 144.789 89.2003 146.622 87.3677C148.454 85.5352 149.485 83.0506 149.488 80.459V76.6992H4.51172Z" fill="url(#paint1_linear_3_3762)"/>
<rect id="Rectangle 422" x="11.1284" y="12.9335" width="101.363" height="9.92578" rx="4.96289" fill="#BECAD3"/>
<rect id="Rectangle 424" x="11.1284" y="41.207" width="101.363" height="9.92578" rx="4.96289" fill="#BECAD3"/>
<rect id="Rectangle 425" x="11.1284" y="56.5469" width="101.363" height="9.92578" rx="4.96289" fill="#BECAD3"/>
<rect id="Rectangle 423" x="88.4297" y="27.3712" width="50.832" height="9.92578" rx="4.96289" fill="#E5ECF1"/>
</g>
<defs>
<linearGradient id="paint0_linear_3_3762" x1="2.43313e+09" y1="-3.17915e+09" x2="2.43313e+09" y2="-3.17915e+09" gradientUnits="userSpaceOnUse">
<stop stop-color="#33AAEE"/>
<stop offset="1" stop-color="#7AAEF6"/>
</linearGradient>
<linearGradient id="paint1_linear_3_3762" x1="2.43313e+09" y1="-7.56941e+08" x2="2.43313e+09" y2="-7.56941e+08" gradientUnits="userSpaceOnUse">
<stop stop-color="#33AAEE"/>
<stop offset="1" stop-color="#7AAEF6"/>
</linearGradient>
</defs>
</svg>
