<svg width="923" height="835" viewBox="0 0 923 835" fill="none" xmlns="http://www.w3.org/2000/svg">
<mask id="mask0_514_193" style="mask-type:luminance" maskUnits="userSpaceOnUse" x="189" y="385" width="68" height="68">
<path d="M189.679 385.992H256.632V452.944H189.679V385.992Z" fill="white"/>
</mask>
<g mask="url(#mask0_514_193)">
<mask id="mask1_514_193" style="mask-type:luminance" maskUnits="userSpaceOnUse" x="189" y="385" width="68" height="68">
<path d="M256.622 419.465L223.143 385.992V402.728H189.67V436.208H223.143V452.945L256.622 419.465Z" fill="white"/>
</mask>
<g mask="url(#mask1_514_193)">
<path d="M189.67 385.992H256.622V452.945H189.67V385.992Z" fill="#33AAEE"/>
</g>
</g>
<mask id="mask2_514_193" style="mask-type:luminance" maskUnits="userSpaceOnUse" x="0" y="-44" width="923" height="924">
<path d="M923 -44H0V879.258H923V-44Z" fill="black" fill-opacity="0.81"/>
</mask>
<g mask="url(#mask2_514_193)">
<mask id="mask3_514_193" style="mask-type:luminance" maskUnits="userSpaceOnUse" x="163" y="359" width="70" height="71">
<path d="M232.949 359.343H163.006V429.286H232.949V359.343Z" fill="white"/>
</mask>
<g mask="url(#mask3_514_193)">
<mask id="mask4_514_193" style="mask-type:luminance" maskUnits="userSpaceOnUse" x="164" y="360" width="68" height="68">
<path d="M164.718 360.631H231.67V427.583H164.718V360.631Z" fill="white"/>
</mask>
<g mask="url(#mask4_514_193)">
<mask id="mask5_514_193" style="mask-type:luminance" maskUnits="userSpaceOnUse" x="164" y="360" width="68" height="68">
<path d="M231.673 394.103L198.201 360.631V377.367H164.721V410.847H198.201V427.583L231.673 394.103Z" fill="white"/>
</mask>
<g mask="url(#mask5_514_193)">
<path d="M164.721 360.631H231.673V427.583H164.721V360.631Z" fill="#6A4AE3"/>
</g>
</g>
</g>
</g>
<path d="M274.996 386.188H293.259C303.782 386.188 303.585 403.597 293.07 403.597H274.996V386.188ZM265.433 377.011V443.851H295.655C308.468 443.851 315.061 433.714 315.061 423.675C315.061 417.363 312.293 410.287 304.643 407.037C311.334 402.259 312.195 394.609 309.519 388.009C307.032 381.795 301.673 377.011 293.259 377.011H265.433ZM274.996 413.159H295.655C302.156 413.159 305.407 418.512 305.407 423.773C305.407 429.027 302.156 434.477 295.655 434.477H274.996V413.159Z" fill="black"/>
<path d="M352.832 377.01H318.315V386.573H330.743V434.19H318.315V443.85H352.832V434.19H340.404V386.573H352.832V377.01Z" fill="black"/>
<path d="M404.659 393.838C402.943 381.599 392.231 376.247 381.905 376.247C374.157 376.247 366.128 379.309 361.631 385.137C358.765 388.871 357.616 393.362 357.995 397.859V397.761C359.053 411.724 371.291 414.014 381.716 415.072C388.406 415.738 395.292 416.599 396.441 421.664C396.631 422.526 396.722 423.29 396.722 423.962C396.722 430.849 388.882 434.863 381.716 434.863C375.495 434.863 367.943 431.612 367.27 425.398V425.777L367.179 424.348L357.427 424.537L357.518 426.351C358.765 438.303 371.291 444.426 381.618 444.426C393.667 444.426 406.48 436.965 406.48 424.06C406.48 422.722 406.284 421.09 405.997 419.661C403.419 408.949 392.042 406.56 382.858 405.411C375.691 404.739 368.132 403.884 367.655 396.998C367.466 394.7 367.943 392.5 369.281 390.784C371.957 387.337 376.931 385.81 381.428 385.712C387.257 385.621 393.758 388.199 395.096 394.224L404.659 393.838Z" fill="black"/>
<path d="M422.916 396.71L440.416 422.722H445.867L463.366 396.71V443.85H472.929V376.912H465.279L443.19 409.425L421.102 376.912H413.255V443.85H422.916V396.71Z" fill="black"/>
<path d="M506.881 391.449L515.106 415.072H498.468L506.881 391.449ZM526.868 443.85H537.195L510.328 376.057H503.253L476.379 443.85H486.803C488.905 438.302 492.254 430.274 494.832 424.151H518.833L526.868 443.85Z" fill="black"/>
<path d="M552.873 414.497L577.259 443.85H589.785L568.649 418.7C580.124 416.697 585.96 407.709 585.96 398.237C585.96 387.624 578.688 376.912 564.159 376.912H539.772V443.85H549.335V386.671H564.159C572.285 386.671 576.299 392.499 576.299 398.237C576.299 404.073 572.285 409.901 564.159 409.901H552.873V414.497Z" fill="black"/>
<path d="M618.371 444.138V385.907H638.547V376.912H588.443V385.907H608.718V444.138H618.371Z" fill="black"/>
<path d="M653.755 415.26H684.068V405.509H653.755V386.671H684.734V377.01H644.003V443.85H684.832V434.19H653.755V415.26Z" fill="black"/>
<path d="M703.759 414.497L728.145 443.85H740.671L719.535 418.7C731.01 416.697 736.846 407.709 736.846 398.237C736.846 387.624 729.574 376.912 715.045 376.912H690.658V443.85H700.221V386.671H715.045C723.171 386.671 727.185 392.499 727.185 398.237C727.185 404.073 723.171 409.901 715.045 409.901H703.759V414.497Z" fill="black"/>
</svg>
