<svg width="380" height="373" viewBox="0 0 380 373" fill="none" xmlns="http://www.w3.org/2000/svg">
<circle cx="195.5" cy="184.754" r="184.5" fill="#3F455D"/>
<path d="M49.3277 178.254C22.1218 178.254 0 156.091 0 128.86C0 101.615 22.1218 79.4524 49.3277 79.4524C52.6395 79.4524 55.9513 79.7951 59.2114 80.4545C70.1106 54.4837 95.7964 37.2539 124.141 37.2539C152.873 37.2539 178.643 54.7682 189.368 81.2045C193.617 80.0537 197.99 79.4524 202.421 79.4524C217.609 79.4524 231.858 86.4542 241.192 98.3308C246.309 96.1585 251.865 95.0142 257.434 95.0142C280.358 95.0142 299 113.686 299 136.624C299 159.582 280.358 178.254 257.434 178.254H49.3277Z" fill="#D9D9D9"/>
<path d="M300.955 128.254H295.085V148.657C299.646 150.537 302.866 155.081 302.866 160.359V224.095C302.866 231.071 297.285 236.724 290.396 236.724H255.585C248.715 236.724 243.115 231.071 243.115 224.095V160.359C243.115 153.396 248.715 147.742 255.585 147.742H262.48V128.254H245.033C233.968 128.254 225 137.337 225 148.54V250.949C225 262.151 233.968 271.254 245.033 271.254H300.955C312.013 271.254 321 262.151 321 250.949V148.54C321 137.337 312.013 128.254 300.955 128.254Z" fill="#33AAEE"/>
<path d="M300.955 128.254H295.085V148.657C299.646 150.537 302.866 155.081 302.866 160.359V224.095C302.866 231.071 297.285 236.724 290.396 236.724H255.585C248.715 236.724 243.115 231.071 243.115 224.095V160.359C243.115 153.396 248.715 147.742 255.585 147.742H262.48V128.254H245.033C233.968 128.254 225 137.337 225 148.54V250.949C225 262.151 233.968 271.254 245.033 271.254H300.955C312.013 271.254 321 262.151 321 250.949V148.54C321 137.337 312.013 128.254 300.955 128.254Z" stroke="#33AAEE" stroke-width="6.03414" stroke-miterlimit="10" stroke-linejoin="round"/>
<path d="M273.003 369.254C232.751 369.254 200 336.301 200 295.808V210.605C200 209.047 200.972 207.637 202.447 207.1L271.715 181.48C272.134 181.332 272.565 181.254 273.003 181.254C273.435 181.254 273.879 181.332 274.298 181.48L343.566 207.1C345.028 207.637 346 209.047 346 210.605V295.808C346 336.301 313.262 369.254 273.003 369.254Z" fill="#33AAEE"/>
<mask id="mask0_2201_674" style="mask-type:luminance" maskUnits="userSpaceOnUse" x="195" y="175" width="156" height="198">
<path d="M195.673 175.344H350.685V372.239H195.673V175.344Z" fill="white"/>
</mask>
<g mask="url(#mask0_2201_674)">
<path d="M273.38 176.926C272.508 176.926 271.629 177.074 270.802 177.384L201.294 202.968C198.361 204.06 196.404 206.864 196.404 209.99V295.113C196.404 337.636 230.935 372.238 273.38 372.238C315.819 372.238 350.356 337.636 350.356 295.113V209.99C350.356 206.864 348.412 204.06 345.466 202.968L275.951 177.384C275.124 177.074 274.259 176.926 273.38 176.926ZM273.38 184.413L342.875 209.99V295.113C342.875 333.579 311.768 364.744 273.38 364.744C234.999 364.744 203.879 333.579 203.879 295.113V209.99L273.38 184.413Z" fill="#33AAEE"/>
</g>
<path d="M272.997 356.254C238.808 356.254 211 327.975 211 293.222V220.801C211 219.229 211.97 217.808 213.429 217.26L271.711 195.482C272.129 195.332 272.56 195.254 272.997 195.254C273.427 195.254 273.871 195.332 274.289 195.482L332.564 217.26C334.036 217.808 335 219.229 335 220.801V293.222C335 327.975 307.18 356.254 272.997 356.254Z" fill="white"/>
<path d="M273.493 192.254C272.616 192.254 271.731 192.402 270.899 192.7L211.923 214.277C208.951 215.369 207 218.173 207 221.306V293.061C207 329.562 236.816 359.254 273.493 359.254C310.164 359.254 340 329.562 340 293.061V221.306C340 218.173 338.03 215.369 335.064 214.277L276.082 192.7C275.249 192.402 274.378 192.254 273.493 192.254ZM273.493 199.741L332.469 221.306V293.061C332.469 325.466 306.067 351.766 273.493 351.766C240.926 351.766 214.524 325.466 214.524 293.061V221.306L273.493 199.741Z" fill="#33AAEE"/>
<path d="M261.81 307.254L241 282.838L250.551 274.23L262.693 288.45L308.268 244.254L317 253.753L261.81 307.254Z" fill="#878181"/>
<path d="M261.81 307.254L241 282.838L250.551 274.23L262.693 288.45L308.268 244.254L317 253.753L261.81 307.254Z" stroke="#878181" stroke-width="6.03414" stroke-miterlimit="10" stroke-linejoin="round"/>
</svg>
